<?xml version="1.0" encoding="iso-8859-1"?>
<!-- Generator: Adobe Illustrator 18.0.0, SVG Export Plug-In . SVG Version: 6.00 Build 0)  -->
<!DOCTYPE svg PUBLIC "-//W3C//DTD SVG 1.1//EN" "http://www.w3.org/Graphics/SVG/1.1/DTD/svg11.dtd">
<svg version="1.1" id="Capa_1" xmlns="http://www.w3.org/2000/svg" xmlns:xlink="http://www.w3.org/1999/xlink" x="0px" y="0px"
	 viewBox="0 0 297 297" style="enable-background:new 0 0 297 297;" xml:space="preserve">
<g>
	<path d="M295.576,104.887c-2.743-4.387-8.524-5.721-12.911-2.979l-93.878,58.674v-33.117c0-11.222-7.816-21.269-22.114-28.595
		l80.122-58.756c4.172-3.061,5.074-8.923,2.015-13.096c-3.063-4.175-8.926-5.076-13.097-2.016l-90.299,66.22
		c-10.853-2.64-22.996-4.045-35.562-4.045c-19.863,0-38.685,3.502-52.994,9.863c-16.729,7.434-25.939,18.238-25.939,30.424v47.722
		L3.829,195.052c-4.173,3.061-5.075,8.924-2.015,13.097c1.836,2.503,4.68,3.829,7.563,3.829c1.923,0,3.863-0.591,5.533-1.814
		l16.008-11.739v4.184c0,12.185,9.211,22.989,25.938,30.424c3.131,1.391,6.487,2.637,10.014,3.747l-31.549,19.719
		c-4.388,2.743-5.722,8.523-2.98,12.911c1.778,2.844,4.831,4.404,7.955,4.404c1.695,0,3.413-0.46,4.956-1.425l48.466-30.291
		c5.252,0.521,10.65,0.797,16.134,0.797c19.863,0,38.684-3.503,52.996-9.862c16.727-7.435,25.938-18.239,25.938-30.424v-19.928
		l103.809-64.881C296.983,115.055,298.317,109.276,295.576,104.887z M109.852,105.916c36.188,0,60.196,12.97,60.196,21.549
		c0,8.578-24.009,21.549-60.196,21.549c-36.187,0-60.196-12.971-60.196-21.549C49.656,118.885,73.665,105.916,109.852,105.916z
		 M49.656,202.607v-48.396c2.218,1.301,4.619,2.529,7.201,3.676c14.312,6.36,33.132,9.863,52.995,9.863
		c19.863,0,38.684-3.503,52.996-9.863c2.582-1.146,4.982-2.375,7.2-3.676v18.081l-80.632,50.396
		C64.911,219.06,49.656,209.442,49.656,202.607z M170.048,202.607c0,7.452-18.125,18.214-46.606,20.912l46.606-29.129V202.607z"/>
	<path d="M94.127,139.652c4.306,0.956,9.891,1.483,15.725,1.483c5.835,0,11.42-0.527,15.725-1.483
		c10.75-2.389,13.008-7.946,13.008-12.187c0-4.242-2.257-9.8-13.008-12.189c-4.305-0.957-9.889-1.483-15.725-1.483
		c-5.835,0-11.419,0.526-15.725,1.483c-10.751,2.39-13.007,7.947-13.007,12.189C81.12,131.706,83.377,137.263,94.127,139.652z"/>
</g>
<g>
</g>
<g>
</g>
<g>
</g>
<g>
</g>
<g>
</g>
<g>
</g>
<g>
</g>
<g>
</g>
<g>
</g>
<g>
</g>
<g>
</g>
<g>
</g>
<g>
</g>
<g>
</g>
<g>
</g>
</svg>
