<svg width="32" height="32" viewBox="0 0 32 32" fill="none" xmlns="http://www.w3.org/2000/svg">
<path d="M23.8192 6C22.8163 6 21.9387 6.875 21.9387 7.875C21.9387 8.875 22.8163 9.75 23.8192 9.75C24.8221 9.75 25.6997 8.875 25.6997 7.875C25.5743 6.875 24.8221 6 23.8192 6Z" fill="white"/>
<path d="M15.6707 8.375C11.4083 8.375 8.02344 11.75 8.02344 16C8.02344 20.25 11.4083 23.625 15.6707 23.625C19.9331 23.625 23.3179 20.25 23.3179 16C23.3179 11.75 19.9331 8.375 15.6707 8.375ZM15.6707 20.875C12.9127 20.875 10.7815 18.625 10.7815 16C10.7815 13.375 13.038 11.125 15.6707 11.125C18.4287 11.125 20.5599 13.375 20.5599 16C20.5599 18.625 18.4287 20.875 15.6707 20.875Z" fill="white"/>
<path d="M21.8134 31.5H9.40233C4.26239 31.5 0 27.375 0 22.125V9.75C0 4.625 4.13703 0.375 9.40233 0.375H21.8134C26.9533 0.375 31.2157 4.5 31.2157 9.75V22.125C31.0904 27.25 26.9533 31.5 21.8134 31.5ZM9.40233 3.375C5.89213 3.375 3.00874 6.25 3.00874 9.75V22.125C3.00874 25.625 5.89213 28.5 9.40233 28.5H21.8134C25.3236 28.5 28.207 25.625 28.207 22.125V9.75C28.207 6.25 25.3236 3.375 21.8134 3.375H9.40233Z" fill="white"/>
</svg>
